# xmcd
#
# Track frame offsets: 
#        150
#        12267
#        23515
#        36480
#        47747
#        58632
#        70537
#        79232
#        91217
#        104307
#        116395
#        129345
#        140787
#        152585
#        165312
#        178157
#        189405
#        200950
#        212740
#        224190
#        236227
#        247325
#        260397
#        273357
#        286497
#        299215
#        311137
#        322315
#        335125
#
# Disc length: 4621 seconds
#
# Revision: 3
# Processed by: cddbd v1.5.2PL0 Copyright (c) Steve Scherf et al.
# Submitted via: ExactAudioCopyFreeDBPlugin 1.0
#
DISCID=d2120b1d
DTITLE=Various Artist - A Shot in the Dark:  Tennessee Jive - Country
DTITLE=on Nashville Independent Labels, 1945-1955
DYEAR=2000
DGENRE=Country
TTITLE0=Leon Payne - Lost Highway
TTITLE1=Leon Payne - Rolling Stone
TTITLE2=Leon Payne - They'll Never Take Her Love from Me
TTITLE3=Dale Belmont and Her Texas Townsmen - Gonna Go Back to Texas
TTITLE4=Autry Inman - You've Got to Leave Those Other Guys Alone
TTITLE5=Butterball Paige - The Girl at the End of the Bar
TTITLE6=Butterball Paige - Honky Tonk Pete
TTITLE7=Autry Inman - Double Cross
TTITLE8=Pete Pyle - Think Twice
TTITLE9=Butterball Paige - I'm Too Old to Boogie Anymore
TTITLE10=Johnny Lee Wills and His Boys - Rag Mop
TTITLE11=Jimmy Work and His Tennessee Border Boys - Hospitality
TTITLE12=Ray Price - Jealous Lies
TTITLE13=Tani Allen - Tennessee Jive
TTITLE14=Roy Hall and His Cohutta Mountain Boys - Mule Boogie
TTITLE15=Paul Blunt and the Frontiersmen - Walking Up Stairs
TTITLE16=Wally Fowler - Linger Longer Little Darling
TTITLE17=Wiley Jordan with Sons of the South - I Feel Like the World B
TTITLE17=elongs to Me
TTITLE18=Al Clauser - Move it Over Rover (Dog House Blues)
TTITLE19=Johnny Lee Wills and His Boys - I Needed You
TTITLE20=George Lee - Station Door Blues
TTITLE21=Johnny Lee Wills and His Boys - The Band's a Rockin'
TTITLE22=Si Jenkins and The Ozark Ramblers - One Dollar Boogie
TTITLE23=Johnny Lee Wills - Careless Me
TTITLE24=Johnny Lee Wills - Levee Blues
TTITLE25=Tani Allen and His Tennessee Pals - When Hillbilly Willie Met K
TTITLE25=itty from the City
TTITLE26=Shorty Ashburn - More and More
TTITLE27=Ray Batts - Bear Cat Daddy
TTITLE28=Ray Batts - Wild Man Boogie
EXTD=Volume #2 of a 8-CD Box Set -BCD 15854
EXTT0=
EXTT1=
EXTT2=
EXTT3=
EXTT4=
EXTT5=
EXTT6=
EXTT7=
EXTT8=
EXTT9=
EXTT10=
EXTT11=
EXTT12=
EXTT13=
EXTT14=
EXTT15=
EXTT16=
EXTT17=
EXTT18=
EXTT19=
EXTT20=
EXTT21=
EXTT22=
EXTT23=
EXTT24=
EXTT25=
EXTT26=
EXTT27=
EXTT28=
PLAYORDER=
